<svg width="22" height="26" viewBox="0 0 22 26" fill="none" xmlns="http://www.w3.org/2000/svg">
<path d="M19.4 8.45337L20.6133 7.25337C20.8644 7.0023 21.0055 6.66178 21.0055 6.30671C21.0055 5.95164 20.8644 5.61111 20.6133 5.36004C20.3623 5.10897 20.0217 4.96792 19.6667 4.96792C19.3116 4.96792 18.9711 5.10897 18.72 5.36004L17.52 6.57337C15.6514 5.12785 13.3558 4.34355 10.9933 4.34355C8.63089 4.34355 6.33528 5.12785 4.46668 6.57337L3.25335 5.34671C3.00051 5.09564 2.65829 4.95529 2.30197 4.95654C1.94565 4.95779 1.60442 5.10053 1.35335 5.35337C1.10228 5.60621 0.961928 5.94844 0.963179 6.30475C0.964429 6.66107 1.10717 7.0023 1.36001 7.25337L2.58668 8.46671C1.12404 10.3301 0.330402 12.6312 0.333348 15C0.328994 16.7006 0.731299 18.3776 1.50671 19.8911C2.28213 21.4046 3.40817 22.7107 4.79094 23.7006C6.1737 24.6905 7.77311 25.3355 9.45576 25.5816C11.1384 25.8278 12.8555 25.6681 14.4639 25.1159C16.0723 24.5636 17.5254 23.6348 18.7019 22.4069C19.8784 21.179 20.7443 19.6876 21.2273 18.0571C21.7103 16.4265 21.7965 14.7042 21.4787 13.0336C21.1608 11.363 20.4481 9.79258 19.4 8.45337ZM11 23C9.41776 23 7.87105 22.5308 6.55545 21.6518C5.23986 20.7727 4.21448 19.5233 3.60898 18.0615C3.00348 16.5997 2.84505 14.9912 3.15373 13.4393C3.46241 11.8875 4.22434 10.462 5.34316 9.34319C6.46198 8.22437 7.88744 7.46244 9.43929 7.15376C10.9911 6.84508 12.5997 7.0035 14.0615 7.609C15.5233 8.2145 16.7727 9.23988 17.6518 10.5555C18.5308 11.8711 19 13.4178 19 15C19 17.1218 18.1572 19.1566 16.6569 20.6569C15.1566 22.1572 13.1217 23 11 23ZM8.33335 3.00004H13.6667C14.0203 3.00004 14.3594 2.85956 14.6095 2.60952C14.8595 2.35947 15 2.02033 15 1.66671C15 1.31309 14.8595 0.973947 14.6095 0.723898C14.3594 0.47385 14.0203 0.333374 13.6667 0.333374H8.33335C7.97973 0.333374 7.64059 0.47385 7.39054 0.723898C7.14049 0.973947 7.00001 1.31309 7.00001 1.66671C7.00001 2.02033 7.14049 2.35947 7.39054 2.60952C7.64059 2.85956 7.97973 3.00004 8.33335 3.00004ZM12.3333 11C12.3333 10.6464 12.1929 10.3073 11.9428 10.0572C11.6928 9.80718 11.3536 9.66671 11 9.66671C10.6464 9.66671 10.3073 9.80718 10.0572 10.0572C9.80716 10.3073 9.66668 10.6464 9.66668 11V13.52C9.36477 13.7901 9.15197 14.1454 9.05644 14.539C8.96091 14.9327 8.98714 15.346 9.13167 15.7244C9.2762 16.1028 9.53222 16.4284 9.86584 16.6581C10.1995 16.8878 10.595 17.0108 11 17.0108C11.4051 17.0108 11.8006 16.8878 12.1342 16.6581C12.4678 16.4284 12.7238 16.1028 12.8684 15.7244C13.0129 15.346 13.0391 14.9327 12.9436 14.539C12.8481 14.1454 12.6353 13.7901 12.3333 13.52V11Z" fill="white"/>
</svg>
