<svg width="41" height="49" viewBox="0 0 41 49" fill="none" xmlns="http://www.w3.org/2000/svg">
<path d="M0 41.0023V46.3734H33.6914C36.9528 46.3734 39.6749 44.0638 40.2949 41.0023C40.3757 40.5727 40.4297 37.4305 40.4297 36.974C40.4297 35.121 39.6749 33.4292 38.4622 32.2206C37.2492 31.0123 35.5512 30.2603 33.6914 30.2603C31.8316 30.2603 30.1336 31.0123 28.9206 32.2206C27.7079 33.4292 26.9531 35.121 26.9531 36.974C26.9531 37.4305 27.0071 37.8872 27.0879 38.3168L14.8242 39.5253L0 41.0023Z" fill="#F691CD"/>
<path d="M14.8242 39.5251L0 41.0022V46.3732H14.8242V39.5251Z" fill="#F691CD"/>
<path d="M0 5.9115V11.2826L11.0239 13.9681L14.8242 13.431L29.6484 11.2826V5.9115H0Z" fill="#F691CD"/>
<path d="M0 5.9115V11.2826L11.0239 13.9681L14.8242 13.431V5.9115H0Z" fill="#F691CD"/>
<path d="M0 11.2825H35.0391V41.0022H0V11.2825Z" fill="#A3D4F7"/>
<path d="M0 11.2825H14.8242V41.0022H0V11.2825Z" fill="#A3D4F7"/>
<rect x="4.59998" y="7.6001" width="3.45" height="41.4" fill="white"/>
<rect x="11.5" y="7.6001" width="3.45" height="41.4" fill="white"/>
<path d="M28.9206 2.50074C30.1336 1.29244 31.8316 0.540405 33.6914 0.540405C37.4109 0.540405 40.4297 3.54818 40.4297 7.25419V15.3107H26.9531V7.25419C26.9531 5.40118 27.7079 3.70931 28.9206 2.50074Z" fill="#E672B7"/>
<path d="M33.6914 5.9115C37.4109 5.9115 40.4297 8.91928 40.4297 12.6253V30.3945H26.9531V12.6253C26.9531 8.91928 29.9719 5.9115 33.6914 5.9115Z" fill="#53A5DF"/>
<path d="M26.9531 30.3944V39.6594C26.9531 37.8064 27.7079 36.1145 28.9206 34.906C30.1336 33.6977 31.8316 32.9456 33.6914 32.9456C35.5512 32.9456 37.2492 33.6977 38.4622 34.906C39.6749 36.1145 40.4297 37.8064 40.4297 39.6594V30.3944C38.6509 28.5951 36.225 27.5746 33.6914 27.5746C31.1578 27.5746 28.7319 28.5951 26.9531 30.3944Z" fill="#E672B7"/>
</svg>
