<svg width="46" height="42" viewBox="0 0 46 42" fill="none" xmlns="http://www.w3.org/2000/svg">
<path d="M4.60004 3C4.60004 1.34314 5.94318 0 7.60004 0H38.4C40.0569 0 41.4 1.34315 41.4 3V12.88H4.60004V3Z" fill="#A3D4F7"/>
<mask id="mask0_3_49" style="mask-type:alpha" maskUnits="userSpaceOnUse" x="4" y="2" width="38" height="14">
<path d="M4.60004 5.76001C4.60004 4.10315 5.94318 2.76001 7.60004 2.76001H38.4C40.0569 2.76001 41.4 4.10316 41.4 5.76001V15.64H4.60004V5.76001Z" fill="#FFB800"/>
</mask>
<g mask="url(#mask0_3_49)">
<path d="M4.60004 3C4.60004 1.34314 5.94318 0 7.60004 0H38.4C40.0569 0 41.4 1.34315 41.4 3V12.88H4.60004V3Z" fill="#53A5DF"/>
</g>
<path d="M4.6 12.8801H41.4L46 29.4401H0L4.6 12.8801Z" fill="#A3D4F7"/>
<path d="M0 34.04H5.52V39.4C5.52 40.5046 4.62457 41.4 3.52 41.4H2C0.89543 41.4 0 40.5046 0 39.4V34.04Z" fill="#F691CD"/>
<path d="M40.48 34.04H46V39.4C46 40.5046 45.1046 41.4 44 41.4H42.48C41.3754 41.4 40.48 40.5046 40.48 39.4V34.04Z" fill="#F691CD"/>
<path d="M0 29.4401H46V33.7201C46 35.9292 44.2091 37.7201 42 37.7201H4C1.79086 37.7201 0 35.9292 0 33.7201V29.4401Z" fill="#53A5DF"/>
<path d="M10.7115 11.8278C10.8992 10.3266 12.1754 9.19995 13.6883 9.19995H15.7516C17.2646 9.19995 18.5408 10.3266 18.7285 11.8278L18.8985 13.1878C19.1223 14.9784 17.7261 16.56 15.9216 16.56H13.5183C11.7138 16.56 10.3177 14.9784 10.5415 13.1878L10.7115 11.8278Z" fill="white"/>
<path d="M26.3516 11.8278C26.5392 10.3266 27.8154 9.19995 29.3284 9.19995H31.3917C32.9047 9.19995 34.1809 10.3266 34.3685 11.8278L34.5385 13.1878C34.7623 14.9784 33.3662 16.56 31.5617 16.56H29.1584C27.3539 16.56 25.9577 14.9784 26.1816 13.1878L26.3516 11.8278Z" fill="white"/>
</svg>
