<svg width="52" height="38" viewBox="0 0 52 38" fill="none" xmlns="http://www.w3.org/2000/svg">
<path d="M6.72748 33.4398L49.7037 17.7978L50.3906 19.6852C50.7684 20.7232 50.2333 21.8709 49.1953 22.2487L9.97789 36.5226C8.93994 36.9004 7.79225 36.3653 7.41446 35.3273L6.72748 33.4398Z" fill="#F691CD"/>
<path d="M48.6642 15.7186L5.68802 31.3606C5.68802 31.3606 3.02176 24.0351 17.495 18.2142C31.9682 12.3934 29.3019 5.06788 29.3019 5.06788L44.2204 3.50942L48.6642 15.7186Z" fill="#A3D4F7"/>
<circle cx="39.694" cy="12.3473" r="3.11825" transform="rotate(-20 39.694 12.3473)" fill="#53A5DF"/>
<rect x="15.7704" y="17.6272" width="2.07883" height="6.23649" transform="rotate(-50 15.7704 17.6272)" fill="#53A5DF"/>
<rect x="19.7489" y="15.1957" width="2.07883" height="6.23649" transform="rotate(-50 19.7489 15.1957)" fill="#53A5DF"/>
<rect x="23.2657" y="12.795" width="2.07883" height="6.23649" transform="rotate(-50 23.2657 12.795)" fill="#53A5DF"/>
</svg>
