<svg width="52" height="30" viewBox="0 0 52 30" fill="none" xmlns="http://www.w3.org/2000/svg">
<rect x="35.1256" y="14.041" width="7.23177" height="7.23177" rx="1" fill="#53A5DF"/>
<path fill-rule="evenodd" clip-rule="evenodd" d="M3.38265 21.7374L51.0001 21.7374C51.5523 21.7374 52.0001 21.2897 52.0001 20.7374V1.13034C52.0001 0.57437 51.5356 0.125021 50.9797 0.132727C25.6286 0.484144 14.5123 4.97154 2.60012 20.1468C2.09074 20.7957 2.55768 21.7374 3.38265 21.7374ZM25.078 15.2179L46.1789 15.2179C46.7311 15.2179 47.1789 14.7702 47.1789 14.2179V5.9338C47.1789 5.37784 46.7227 4.92805 46.1668 4.93862C34.9272 5.15225 29.6662 7.17126 24.3148 13.6412C23.789 14.2769 24.253 15.2179 25.078 15.2179Z" fill="#A3D4F7"/>
<path fill-rule="evenodd" clip-rule="evenodd" d="M2.32048 23.1099L51.1056 23.1099C51.5975 23.1099 51.9964 23.5426 51.9965 24.0761V28.0048L0.172327 28.0048L0.172327 29.0048L51.9355 29.0048C51.8057 29.3643 51.4831 29.6189 51.1057 29.6189L0.89139 29.6189C0.28165 29.6189 -0.147828 28.9692 0.047768 28.3427L1.47686 23.7661C1.59933 23.3739 1.93873 23.1099 2.32048 23.1099Z" fill="#F691CD"/>
</svg>
